<svg width="322" height="100" viewBox="0 0 425 132" fill="none" xmlns="http://www.w3.org/2000/svg">
<path d="M155.8 45.2H133.4V32H194.4V45.2H172V102H155.8V45.2ZM220.982 47.4C229.315 47.4 235.715 49.4 240.182 53.4C244.649 57.3333 246.882 63.3 246.882 71.3V102H232.282V95.3C229.349 100.3 223.882 102.8 215.882 102.8C211.749 102.8 208.149 102.1 205.082 100.7C202.082 99.3 199.782 97.3667 198.182 94.9C196.582 92.4333 195.782 89.6333 195.782 86.5C195.782 81.5 197.649 77.5667 201.382 74.7C205.182 71.8333 211.015 70.4 218.882 70.4H231.282C231.282 67 230.249 64.4 228.182 62.6C226.115 60.7333 223.015 59.8 218.882 59.8C216.015 59.8 213.182 60.2667 210.382 61.2C207.649 62.0667 205.315 63.2667 203.382 64.8L197.782 53.9C200.715 51.8333 204.215 50.2333 208.282 49.1C212.415 47.9667 216.649 47.4 220.982 47.4ZM219.782 92.3C222.449 92.3 224.815 91.7 226.882 90.5C228.949 89.2333 230.415 87.4 231.282 85V79.5H220.582C214.182 79.5 210.982 81.6 210.982 85.8C210.982 87.8 211.749 89.4 213.282 90.6C214.882 91.7333 217.049 92.3 219.782 92.3ZM279.101 102.8C274.634 102.8 270.267 102.267 266.001 101.2C261.734 100.067 258.334 98.6667 255.801 97L261.001 85.8C263.401 87.3333 266.301 88.6 269.701 89.6C273.101 90.5333 276.434 91 279.701 91C286.301 91 289.601 89.3667 289.601 86.1C289.601 84.5667 288.701 83.4667 286.901 82.8C285.101 82.1333 282.334 81.5667 278.601 81.1C274.201 80.4333 270.567 79.6667 267.701 78.8C264.834 77.9333 262.334 76.4 260.201 74.2C258.134 72 257.101 68.8667 257.101 64.8C257.101 61.4 258.067 58.4 260.001 55.8C262.001 53.1333 264.867 51.0667 268.601 49.6C272.401 48.1333 276.867 47.4 282.001 47.4C285.801 47.4 289.567 47.8333 293.301 48.7C297.101 49.5 300.234 50.6333 302.701 52.1L297.501 63.2C292.767 60.5333 287.601 59.2 282.001 59.2C278.667 59.2 276.167 59.6667 274.501 60.6C272.834 61.5333 272.001 62.7333 272.001 64.2C272.001 65.8667 272.901 67.0333 274.701 67.7C276.501 68.3667 279.367 69 283.301 69.6C287.701 70.3333 291.301 71.1333 294.101 72C296.901 72.8 299.334 74.3 301.401 76.5C303.467 78.7 304.501 81.7667 304.501 85.7C304.501 89.0333 303.501 92 301.501 94.6C299.501 97.2 296.567 99.2333 292.701 100.7C288.901 102.1 284.367 102.8 279.101 102.8ZM337.226 80.9L329.726 88.3V102H314.126V27.8H329.726V69.8L352.526 48.2H371.126L348.726 71L373.126 102H354.226L337.226 80.9ZM396.484 102.8C392.017 102.8 387.65 102.267 383.384 101.2C379.117 100.067 375.717 98.6667 373.184 97L378.384 85.8C380.784 87.3333 383.684 88.6 387.084 89.6C390.484 90.5333 393.817 91 397.084 91C403.684 91 406.984 89.3667 406.984 86.1C406.984 84.5667 406.084 83.4667 404.284 82.8C402.484 82.1333 399.717 81.5667 395.984 81.1C391.584 80.4333 387.95 79.6667 385.084 78.8C382.217 77.9333 379.717 76.4 377.584 74.2C375.517 72 374.484 68.8667 374.484 64.8C374.484 61.4 375.45 58.4 377.384 55.8C379.384 53.1333 382.25 51.0667 385.984 49.6C389.784 48.1333 394.25 47.4 399.384 47.4C403.184 47.4 406.95 47.8333 410.684 48.7C414.484 49.5 417.617 50.6333 420.084 52.1L414.884 63.2C410.15 60.5333 404.984 59.2 399.384 59.2C396.05 59.2 393.55 59.6667 391.884 60.6C390.217 61.5333 389.384 62.7333 389.384 64.2C389.384 65.8667 390.284 67.0333 392.084 67.7C393.884 68.3667 396.75 69 400.684 69.6C405.084 70.3333 408.684 71.1333 411.484 72C414.284 72.8 416.717 74.3 418.784 76.5C420.85 78.7 421.884 81.7667 421.884 85.7C421.884 89.0333 420.884 92 418.884 94.6C416.884 97.2 413.95 99.2333 410.084 100.7C406.284 102.1 401.75 102.8 396.484 102.8Z" fill="#6904A7"/>
<path d="M119.905 60.8848V65.8572C119.898 77.5122 116.124 88.8528 109.146 98.1877C102.168 107.523 92.3585 114.351 81.1818 117.656C70.0051 120.961 58.0596 120.564 47.1269 116.525C36.1942 112.486 26.86 105.021 20.5164 95.2434C14.1729 85.4659 11.1599 73.8999 11.9267 62.2702C12.6936 50.6404 17.1992 39.5702 24.7717 30.7104C32.3442 21.8506 42.5778 15.676 53.9462 13.1074C65.3146 10.5389 77.2088 11.714 87.8548 16.4576" stroke="#1C1018" stroke-width="23.2911" stroke-linecap="round" stroke-linejoin="round"/>
<path d="M133.5 11.9394L65.8573 76.7209L49.643 60.5066" stroke="#6904A7" stroke-width="17.4684" stroke-linecap="round" stroke-linejoin="round"/>
</svg>
